<svg xmlns="http://www.w3.org/2000/svg" version="1.1" xmlns:xlink="http://www.w3.org/1999/xlink" xmlns:svgjs="http://svgjs.dev/svgjs" width="1440" height="560" preserveAspectRatio="none" viewBox="0 0 1440 560"><g mask="url(&quot;#SvgjsMask1000&quot;)" fill="none"><rect width="1440" height="560" x="0" y="0" fill="rgba(254, 193, 64, 1)"></rect><path d="M0,482.219C88.718,480.144,148.722,395.553,223.704,348.09C299.326,300.222,415.984,287.569,442.533,202.098C469.724,114.562,384.374,33.908,347.341,-49.94C320.606,-110.472,294.324,-167.804,255.492,-221.385C213.094,-279.887,174.894,-343.69,110.587,-376.624C39.304,-413.131,-42.342,-425.141,-121.73,-414.576C-209.628,-402.879,-308.061,-384.062,-362.06,-313.727C-415.725,-243.827,-393.805,-145.066,-396.275,-56.976C-398.463,21.062,-404.58,99.044,-375.666,171.561C-345.823,246.408,-292.627,307.365,-230.532,358.715C-161.962,415.419,-88.955,484.3,0,482.219" fill="#fdac01"></path><path d="M1440 1024.59C1557.722 1026.446 1680.276 1151.636 1780 1089.05 1879.394 1026.671 1821.8899999999999 863.3820000000001 1868.48 755.6800000000001 1913.636 651.294 2059.962 585.731 2046.587 472.786 2033.28 360.413 1888.683 320.404 1807.59 241.48200000000003 1734.95 170.786 1690.575 66.02499999999998 1594.734 33.025999999999954 1497.647-0.40200000000004366 1395.701 46.841999999999985 1294.613 64.858 1179.949 85.29399999999998 1028.0149999999999 49.851999999999975 961.983 145.796 894.009 244.562 989.754 376.757 997.615 496.395 1003.4929999999999 585.859 985.8 671.7570000000001 1002.3330000000001 759.876 1023.367 871.983 1009.221 1019.405 1106.821 1078.4360000000001 1205.074 1137.862 1325.188 1022.78 1440 1024.59" fill="#fed67f"></path></g><defs><mask id="SvgjsMask1000"><rect width="1440" height="560" fill="#ffffff"></rect></mask></defs></svg>